<svg width="29.041748" height="21.166779" viewBox="0 0 29.0417 21.1668" fill="none" xmlns="http://www.w3.org/2000/svg" xmlns:xlink="http://www.w3.org/1999/xlink">
	<desc>
			Created with Pixso.
	</desc>
	<defs/>
	<path id="Vector" d="M10.9609 20.8951L10.9526 20.8916L10.927 20.8776C10.7769 20.795 10.6279 20.7102 10.4802 20.6233C8.70435 19.568 7.04468 18.3283 5.52881 16.9249C2.84424 14.4201 0 10.7031 0 6.12509C0 2.70908 2.87476 9.15527e-05 6.34424 9.15527e-05C7.30884 -0.00463867 8.26196 0.20816 9.13306 0.62262C10.0039 1.03711 10.7703 1.64261 11.375 2.39407C11.9797 1.64246 12.7463 1.03687 13.6174 0.622375C14.4888 0.207886 15.4421 -0.00482178 16.4067 9.15527e-05C19.8752 9.15527e-05 22.75 2.70908 22.75 6.12509C22.75 10.7043 19.9058 14.4213 17.2212 16.9237C15.7053 18.3272 14.0457 19.5669 12.2698 20.6221C12.1221 20.7094 11.9731 20.7946 11.823 20.8776L11.7974 20.8916L11.7891 20.8962L11.7856 20.8974C11.6592 20.9644 11.5181 20.9995 11.375 20.9995C11.2319 20.9995 11.0908 20.9644 10.9644 20.8974L10.9609 20.8951Z" fill="#FFFFFF" fill-opacity="1.000000" fill-rule="nonzero"/>
	<path id="offline_bolt" d="M21.2683 18.4686L24.4583 12.2352L22.2583 12.2352L22.2583 8.2019L18.9583 14.4352L21.2683 14.4352L21.2683 18.4686ZM21.7083 20.6685C20.6938 20.6685 19.7405 20.476 18.8484 20.0911C17.9561 19.7061 17.1799 19.1836 16.52 18.5236C15.8601 17.8636 15.3374 17.0875 14.9524 16.1952C14.5674 15.303 14.375 14.3497 14.375 13.3352C14.375 12.3208 14.5674 11.3675 14.9524 10.4752C15.3374 9.58301 15.8601 8.80688 16.52 8.14688C17.1799 7.48688 17.9561 6.96439 18.8484 6.57941C19.7405 6.1944 20.6938 6.00189 21.7083 6.00189C22.7227 6.00189 23.676 6.1944 24.5684 6.57941C25.4604 6.96439 26.2366 7.48688 26.8967 8.14688C27.5566 8.80688 28.0791 9.58301 28.4641 10.4752C28.8491 11.3675 29.0417 12.3208 29.0417 13.3352C29.0417 14.3497 28.8491 15.303 28.4641 16.1952C28.0791 17.0875 27.5566 17.8636 26.8967 18.5236C26.2366 19.1836 25.4604 19.7061 24.5684 20.0911C23.676 20.476 22.7227 20.6685 21.7083 20.6685Z" fill="#894189" fill-opacity="1.000000" fill-rule="nonzero"/>
	<path id="offline_bolt" d="M21.6416 18.0019L24.5417 12.3352L22.5417 12.3352L22.5417 8.66852L19.5417 14.3352L21.6416 14.3352L21.6416 18.0019ZM22.0417 20.0019C21.1194 20.0019 20.2527 19.8268 19.4417 19.4768C18.6306 19.1269 17.925 18.6519 17.325 18.0518C16.7251 17.4518 16.25 16.7463 15.8999 15.9352C15.55 15.1241 15.375 14.2574 15.375 13.3352C15.375 12.413 15.55 11.5463 15.8999 10.7352C16.25 9.92407 16.7251 9.21851 17.325 8.61853C17.925 8.01852 18.6306 7.54352 19.4417 7.19351C20.2527 6.84351 21.1194 6.66852 22.0417 6.66852C22.9639 6.66852 23.8306 6.84351 24.6416 7.19351C25.4529 7.54352 26.1584 8.01852 26.7583 8.61853C27.3584 9.21851 27.8333 9.92407 28.1833 10.7352C28.5334 11.5463 28.7083 12.413 28.7083 13.3352C28.7083 14.2574 28.5334 15.1241 28.1833 15.9352C27.8333 16.7463 27.3584 17.4518 26.7583 18.0518C26.1584 18.6519 25.4529 19.1269 24.6416 19.4768C23.8306 19.8268 22.9639 20.0019 22.0417 20.0019Z" fill="#FFFFFF" fill-opacity="1.000000" fill-rule="nonzero"/>
</svg>
